<?xml version="1.0" encoding="iso-8859-1"?>
<!-- Generator: Adobe Illustrator 19.0.0, SVG Export Plug-In . SVG Version: 6.00 Build 0)  -->
<svg version="1.1" id="Capa_1" xmlns="http://www.w3.org/2000/svg" xmlns:xlink="http://www.w3.org/1999/xlink" x="0px" y="0px"
	 viewBox="0 0 512 512" style="enable-background:new 0 0 512 512;" xml:space="preserve">
<g>
	<g>
		<path d="M463.505,262.544c-1.177-3.62-4.308-6.257-8.075-6.804l-30.293-4.393l-13.555-27.446
			c-1.685-3.412-5.161-5.572-8.966-5.572h-0.002c-3.807,0.001-7.282,2.163-8.966,5.577l-13.54,27.453l-30.291,4.411
			c-3.767,0.548-6.895,3.188-8.07,6.808c-1.175,3.621-0.193,7.595,2.533,10.251l21.925,21.359l-5.167,30.172
			c-0.644,3.752,0.9,7.543,3.98,9.779c1.742,1.265,3.804,1.908,5.876,1.908c1.593,0,3.191-0.38,4.655-1.15l27.09-14.252
			l27.098,14.237c3.37,1.771,7.452,1.475,10.531-0.764c3.079-2.239,4.62-6.03,3.976-9.782l-5.183-30.168l21.914-21.372
			C463.702,270.138,464.682,266.164,463.505,262.544z M421.336,283.52c-2.356,2.298-3.431,5.608-2.874,8.853l2.642,15.381
			l-13.816-7.259c-2.914-1.529-6.394-1.53-9.307,0.003l-13.812,7.266l2.634-15.383c0.556-3.244-0.521-6.554-2.878-8.851
			l-11.178-10.89l15.444-2.248c3.257-0.474,6.072-2.521,7.528-5.473l6.903-13.996l6.911,13.993c1.458,2.951,4.274,4.996,7.531,5.469
			l15.444,2.239L421.336,283.52z"/>
	</g>
</g>
<g>
	<g>
		<path d="M316.88,262.545c-1.177-3.62-4.309-6.258-8.076-6.804l-30.293-4.393l-13.555-27.446c-1.685-3.412-5.161-5.572-8.966-5.572
			h-0.002c-3.807,0.001-7.282,2.163-8.966,5.577l-13.54,27.453l-30.291,4.411c-3.767,0.548-6.896,3.188-8.07,6.808
			c-1.175,3.621-0.193,7.595,2.533,10.251l21.925,21.359l-5.167,30.172c-0.643,3.752,0.901,7.543,3.981,9.779
			c1.742,1.265,3.804,1.908,5.876,1.908c1.593,0,3.191-0.38,4.655-1.15l27.09-14.252l27.098,14.237
			c3.369,1.771,7.452,1.475,10.531-0.764c3.079-2.238,4.62-6.03,3.976-9.782l-5.183-30.168l21.914-21.372
			C317.077,270.139,318.057,266.165,316.88,262.545z M274.709,283.521c-2.356,2.298-3.431,5.608-2.874,8.853l2.642,15.381
			l-13.815-7.259c-2.914-1.529-6.394-1.53-9.307,0.003l-13.812,7.266l2.634-15.383c0.556-3.244-0.521-6.554-2.878-8.851
			l-11.178-10.89l15.444-2.249c3.257-0.474,6.072-2.521,7.528-5.473l6.903-13.996l6.911,13.993c1.458,2.951,4.274,4.996,7.531,5.469
			l15.444,2.239L274.709,283.521z"/>
	</g>
</g>
<g>
	<g>
		<path d="M170.253,262.545c-1.177-3.62-4.308-6.257-8.075-6.804l-30.293-4.393l-13.555-27.446
			c-1.685-3.412-5.161-5.572-8.966-5.572h-0.002c-3.807,0.001-7.282,2.163-8.966,5.577l-13.54,27.453l-30.291,4.411
			c-3.767,0.548-6.896,3.188-8.07,6.808c-1.175,3.621-0.193,7.595,2.533,10.251l21.925,21.359l-5.167,30.172
			c-0.643,3.752,0.901,7.543,3.981,9.779c1.742,1.265,3.804,1.908,5.876,1.908c1.593,0,3.191-0.38,4.655-1.15l27.09-14.252
			l27.098,14.237c3.369,1.771,7.453,1.475,10.531-0.764c3.079-2.238,4.62-6.03,3.976-9.782l-5.183-30.168l21.914-21.372
			C170.45,270.138,171.43,266.165,170.253,262.545z M128.083,283.521c-2.356,2.298-3.431,5.608-2.874,8.853l2.642,15.381
			l-13.815-7.259c-2.913-1.529-6.394-1.53-9.307,0.003l-13.812,7.266l2.634-15.383c0.556-3.244-0.521-6.554-2.878-8.851
			l-11.178-10.89l15.444-2.249c3.257-0.474,6.072-2.521,7.528-5.473l6.903-13.996l6.911,13.993c1.458,2.951,4.274,4.996,7.531,5.469
			l15.444,2.239L128.083,283.521z"/>
	</g>
</g>
<g>
	<g>
		<path d="M390.191,140.169c-1.177-3.62-4.308-6.257-8.074-6.804l-30.293-4.394l-13.555-27.446
			c-1.686-3.412-5.161-5.572-8.966-5.572c0,0-0.002,0-0.003,0c-3.806,0.001-7.282,2.163-8.966,5.577l-13.54,27.453l-30.291,4.41
			c-3.767,0.548-6.896,3.188-8.071,6.808c-1.175,3.621-0.193,7.594,2.533,10.25l21.925,21.36l-5.167,30.171
			c-0.643,3.752,0.901,7.543,3.981,9.78c1.742,1.265,3.804,1.908,5.876,1.908c1.592,0,3.191-0.38,4.655-1.15l27.09-14.252
			l27.098,14.237c3.369,1.771,7.452,1.475,10.531-0.764c3.079-2.238,4.62-6.03,3.976-9.781l-5.183-30.169l21.914-21.372
			C390.388,147.763,391.368,143.789,390.191,140.169z M348.022,161.145c-2.356,2.298-3.431,5.608-2.874,8.852l2.642,15.382
			l-13.816-7.259c-2.914-1.531-6.394-1.53-9.307,0.002l-13.812,7.266l2.634-15.383c0.556-3.244-0.521-6.554-2.878-8.851
			l-11.178-10.89l15.443-2.249c3.257-0.474,6.072-2.521,7.528-5.472l6.903-13.997l6.911,13.993c1.458,2.951,4.274,4.996,7.531,5.468
			l15.445,2.24L348.022,161.145z"/>
	</g>
</g>
<g>
	<g>
		<path d="M243.566,140.169c-1.177-3.62-4.308-6.257-8.074-6.804l-30.293-4.394l-13.555-27.446
			c-1.686-3.412-5.161-5.572-8.966-5.572c0,0-0.002,0-0.003,0c-3.806,0.001-7.282,2.163-8.966,5.577l-13.54,27.453l-30.291,4.41
			c-3.767,0.548-6.896,3.188-8.071,6.808c-1.175,3.621-0.193,7.594,2.533,10.25l21.925,21.36l-5.167,30.171
			c-0.643,3.752,0.901,7.543,3.981,9.78c1.742,1.265,3.804,1.908,5.876,1.908c1.592,0,3.191-0.38,4.655-1.15l27.09-14.252
			l27.098,14.239c3.369,1.771,7.453,1.475,10.531-0.764c3.079-2.238,4.62-6.03,3.976-9.781l-5.183-30.169l21.914-21.372
			C243.763,147.763,244.743,143.789,243.566,140.169z M201.397,161.144c-2.356,2.298-3.431,5.608-2.874,8.852l2.642,15.382
			l-13.816-7.259c-2.914-1.53-6.394-1.529-9.307,0.004l-13.812,7.266l2.634-15.383c0.556-3.244-0.521-6.554-2.878-8.851
			l-11.178-10.89l15.443-2.249c3.257-0.474,6.072-2.521,7.528-5.472l6.903-13.997l6.911,13.993c1.458,2.951,4.274,4.996,7.531,5.468
			l15.445,2.24L201.397,161.144z"/>
	</g>
</g>
<g>
	<g>
		<path d="M442.002,27.006H69.998C31.401,27.006,0,58.407,0,97.004v237.994c0,38.597,31.401,69.998,69.998,69.998h64.011v69.998
			c0,4.045,2.437,7.691,6.173,9.239c1.237,0.512,2.536,0.761,3.824,0.761c2.603,0,5.161-1.016,7.074-2.929l77.069-77.069h57.523
			c5.523,0,10-4.478,10-10c0-5.522-4.477-10-10-10h-61.665c-2.652,0-5.196,1.054-7.071,2.929l-62.927,62.927v-55.856
			c0-5.522-4.477-10-10-10h-74.01C42.429,384.998,20,362.568,20,334.999V97.005c0-27.569,22.429-49.999,49.999-49.999h372.004
			c0.671,0,1.336,0.024,2,0.051v59.477c0,5.523,4.477,10,10,10s10-4.477,10-10V52.118C480.569,60.272,492,77.325,492,97.003v237.994
			c0,27.569-22.429,49.999-49.999,49.999h-70.998c-5.523,0-10,4.478-10,10c0,5.522,4.477,10,10,10h70.998
			c38.597,0,69.998-31.401,69.998-69.998V97.003C512,58.406,480.599,27.006,442.002,27.006z"/>
	</g>
</g>
<g>
	<g>
		<path d="M336.384,387.927c-1.86-1.86-4.44-2.93-7.07-2.93s-5.21,1.069-7.07,2.93c-1.86,1.86-2.93,4.44-2.93,7.07
			s1.07,5.21,2.93,7.069c1.86,1.86,4.43,2.931,7.07,2.931c2.63,0,5.21-1.07,7.07-2.931c1.86-1.859,2.93-4.439,2.93-7.069
			S338.244,389.787,336.384,387.927z"/>
	</g>
</g>
<g>
	<g>
		<path d="M461.071,136.962c-1.86-1.86-4.44-2.92-7.07-2.92s-5.21,1.06-7.07,2.92c-1.86,1.87-2.93,4.44-2.93,7.08
			c0,2.63,1.07,5.2,2.93,7.07c1.86,1.86,4.44,2.92,7.07,2.92s5.21-1.06,7.07-2.92c1.86-1.87,2.93-4.44,2.93-7.07
			C464.001,141.402,462.931,138.832,461.071,136.962z"/>
	</g>
</g>
<g>
</g>
<g>
</g>
<g>
</g>
<g>
</g>
<g>
</g>
<g>
</g>
<g>
</g>
<g>
</g>
<g>
</g>
<g>
</g>
<g>
</g>
<g>
</g>
<g>
</g>
<g>
</g>
<g>
</g>
</svg>
